<svg xmlns="http://www.w3.org/2000/svg" width="595.225" height="409.335" viewBox="0 0 595.225 409.335"><defs><style>.a{fill:#212121;}.b{fill:#f5f5f5;}.c{fill:#ffb8b8;}.d{fill:#f29b38;}.e{fill:#fff;}.f,.h{fill:#ffcc68;}.g{fill:#484848;}.h{stroke:#707070;}.i{fill:#43a047;}.j{fill:#ccc;}</style></defs><g transform="translate(0 0.001)"><path class="a" d="M879.579,396.5l1.767-14.538a19.233,19.233,0,0,1,21.345-17.051A19.534,19.534,0,0,1,919.3,386.82l-1.767,14.538a2.587,2.587,0,0,1-2.867,2.29L881.81,399.44a2.627,2.627,0,0,1-2.231-2.943Z" transform="translate(-405.401 -215.349)"/><ellipse class="b" cx="14.022" cy="14.394" rx="14.022" ry="14.394" transform="translate(475.894 156.698)"/><path d="M875.034,384.818A15.232,15.232,0,0,1,891.92,371.33l2.833.363a15.47,15.47,0,0,1,13.139,17.333l-.035.291-5.986-.767-1.328-6.13-1.122,5.816-3.094-.4-.67-3.093-.566,2.935L875,385.109Z" transform="translate(-403.721 -217.619)"/><path class="c" d="M795.492,472.132a6.489,6.489,0,0,0,4.308,3.452,6.328,6.328,0,0,0,5.344-1.174l12.736,7.659,6.421-6.81L806.167,464.7a6.376,6.376,0,0,0-8.552-1.153,6.772,6.772,0,0,0-2.124,8.582Z" transform="translate(-374.155 -249.695)"/><path class="a" d="M846.183,479.915c-9.394,0-25.925-4.317-26.84-4.558l-.289-.076,2.6-13.522,25.249,5.119,13.717-19.828,15.748-1.643-.44.594c-.2.277-20.505,27.709-23.664,32.31C851.468,479.472,849.191,479.915,846.183,479.915Z" transform="translate(-383.106 -243.717)"/><path class="a" d="M858.33,528.3l-.376-.184c-.08-.039-8.061-4.024-12.2-11.8-4.114-7.743,15.146-40.589,16.493-42.868l.02-10.431,6.928-19.2,8.836-5.127-7.586,18.17Z" transform="translate(-392.734 -241.354)"/><path class="b" d="M715.985,597.448h-8.445l-4.018-33.436h12.464Z" transform="translate(-259.242 -198.388)"/><path d="M839.5,756.738H812.275v-.354a10.742,10.742,0,0,1,10.6-10.879h16.632Z" transform="translate(-380.608 -349.275)"/><path class="b" d="M854.062,586.631l-8.025,2.7-13.961-30.489,11.844-3.984Z" transform="translate(-306.613 -195.168)"/><path d="M987.421,743.616l-25.873,8.7-.107-.336a10.944,10.944,0,0,1,6.771-13.726h0l15.8-5.315Z" transform="translate(-435.379 -344.856)"/><path class="a" d="M914.045,645.594l-24.073-41.256L869.65,560.262,851.363,599.2,844.1,649.623l-25.477.363.1-.409,38.988-159.024,30.535,4.683-1.39,20.69.828,1.209c6.9,10.059,14.03,20.459,9.939,31.669l11.6,35.345L934.885,643Z" transform="translate(-382.946 -259.597)"/><path class="d" d="M878.307,503.4c-4.425,0-9.473-5.186-6.854-14.04l-.17-.126,6.29-28.528c-5.489-8.059,1.748-14.71,2.426-15.3l3.455-6.383L898.7,429.1l7.713,65.781-.114.112C900.727,500.46,882.019,503.4,878.307,503.4Z" transform="translate(-402.149 -237.98)"/><path class="a" d="M923.767,516.529a7.313,7.313,0,0,1-1.8-.2c-.593-.153-1.553-.927-3.036-5.884-5.9-19.705-12.857-79-7.8-84.8l.116-.133,8.3,1.421c.69-.523,4.312-3.118,7.655-2.667a5.05,5.05,0,0,1,3.471,2.106l.057.077,2.645,38.632,9.691,45.463-.232.108C942.275,510.921,930.173,516.529,923.767,516.529Z" transform="translate(-416.392 -236.265)"/><path class="c" d="M919.376,529.51a6.406,6.406,0,0,0,4.872-2.542,6.764,6.764,0,0,0,1.23-5.466l12.156-8.594-3.286-8.857-17,12.384a6.673,6.673,0,0,0-4.643,7.462A6.54,6.54,0,0,0,919.376,529.51Z" transform="translate(-417.585 -264.345)"/><path class="a" d="M939.558,492.552,928.73,484.4l15.22-21.3-11.68-21.158L937.5,426.6l.338.661c.157.308,15.755,30.81,18.476,35.7,2.831,5.085-15.769,28.368-16.562,29.356Z" transform="translate(-423.521 -237.102)"/><path d="M492.578,648.363l-9.215-3.983-6.322-47.421H392.859l-6.852,47.227-8.244,4.232a2.027,2.027,0,0,0-1.03,2.259,1.969,1.969,0,0,0,1.905,1.548H491.819a1.971,1.971,0,0,0,1.92-1.612A2.022,2.022,0,0,0,492.578,648.363Z" transform="translate(-220.095 -297.025)"/><path class="d" d="M551.029,569.649H137.5a8.3,8.3,0,0,1-8.174-8.41v-59.86H559.2v59.86a8.3,8.3,0,0,1-8.174,8.41Z" transform="translate(-128.947 -263.405)"/><path class="d" d="M559.415,400.545H128.726V144.419A10.021,10.021,0,0,1,138.6,134.28H549.539a10.021,10.021,0,0,1,9.877,10.138Z" transform="translate(-128.726 -134.28)"/><path class="e" d="M544.259,392.042H165.017a7.726,7.726,0,0,1-7.614-7.816V170.772a7.726,7.726,0,0,1,7.614-7.816H544.259a7.726,7.726,0,0,1,7.614,7.816V384.226A7.726,7.726,0,0,1,544.259,392.042Z" transform="translate(-139.294 -144.367)"/><path d="M513.214,681.9h-213.1a.993.993,0,0,1-.972-.735,1.012,1.012,0,0,1,.169-.857.958.958,0,0,1,.764-.387H513.135a1.024,1.024,0,0,1,1.021.774,1.01,1.01,0,0,1-.189.834A.956.956,0,0,1,513.214,681.9Z" transform="translate(-191.511 -326.206)"/><rect class="f" width="91.566" height="71.809" transform="translate(309.351 53.098)"/><rect class="e" width="82.466" height="64.673" transform="translate(313.901 56.666)"/><path class="d" d="M693.087,271.251h.033a22.615,22.615,0,0,0,.492-45.047.494.494,0,0,0-.38.135.515.515,0,0,0-.162.373l-.481,44.018A.511.511,0,0,0,693.087,271.251Z" transform="translate(-336.505 -166.614)"/><path class="g" d="M662.568,237.433a.639.639,0,0,1,.454.2l14.762,15.5a.667.667,0,0,1,.184.47l-.23,21.063a.663.663,0,0,1-.208.48.638.638,0,0,1-.487.174,22.189,22.189,0,0,1-18.84-14.073,23.187,23.187,0,0,1,3.873-23.585.642.642,0,0,1,.468-.225Z" transform="translate(-323.229 -170.564)"/><path class="h" d="M681.826,225.927a.641.641,0,0,1,.442.185.664.664,0,0,1,.2.485l-.207,19a.662.662,0,0,1-.4.607.633.633,0,0,1-.7-.151l-12.882-13.523a.675.675,0,0,1,.035-.96,21.876,21.876,0,0,1,13.48-5.645Z" transform="translate(-327.476 -166.517)"/><path class="d" d="M674.725,307.551a3.95,3.95,0,1,1-3.9-4.1A4,4,0,0,1,674.725,307.551Z" transform="translate(-327.012 -193.785)"/><path class="f" d="M692.59,307.752a3.95,3.95,0,1,1-3.9-4.1A4,4,0,0,1,692.59,307.752Z" transform="translate(-333.595 -193.856)"/><path class="g" d="M710.457,307.952a3.95,3.95,0,1,1-3.9-4.1A4,4,0,0,1,710.457,307.952Z" transform="translate(-340.178 -193.927)"/><rect class="d" width="91.566" height="71.809" transform="translate(308.387 136.209)"/><rect class="e" width="82.466" height="64.673" transform="translate(312.937 139.777)"/><ellipse class="d" cx="3.424" cy="3.515" rx="3.424" ry="3.515" transform="translate(323.505 154.003)"/><path class="d" d="M710.839,372.732a2.385,2.385,0,0,1,0,4.767H674.826a2.385,2.385,0,0,1,0-4.767h36.012m0-.584H674.826a2.969,2.969,0,0,0,0,5.935h36.012a2.969,2.969,0,0,0,0-5.935Z" transform="translate(-328.894 -217.949)"/><path class="d" d="M693.532,378.084H666.423a2.969,2.969,0,0,1,0-5.935h27.109a2.969,2.969,0,0,1,0,5.935Z" transform="translate(-325.797 -217.949)"/><ellipse class="f" cx="3.424" cy="3.515" rx="3.424" ry="3.515" transform="translate(323.505 168.599)"/><path class="d" d="M710.839,395.247a2.385,2.385,0,0,1,0,4.767H674.826a2.385,2.385,0,0,1,0-4.767h36.012m0-.584H674.826a2.969,2.969,0,0,0,0,5.935h36.012a2.969,2.969,0,0,0,0-5.935Z" transform="translate(-328.894 -225.869)"/><path class="d" d="M703.769,400.6H666.422a2.969,2.969,0,0,1,0-5.935h37.347a2.969,2.969,0,0,1,0,5.935Z" transform="translate(-325.797 -225.869)"/><ellipse class="g" cx="3.424" cy="3.515" rx="3.424" ry="3.515" transform="translate(323.505 183.194)"/><path class="d" d="M710.839,417.762a2.385,2.385,0,0,1,0,4.767H674.826a2.385,2.385,0,0,1,0-4.767h36.012m0-.584H674.826a2.969,2.969,0,0,0,0,5.935h36.012a2.969,2.969,0,0,0,0-5.935Z" transform="translate(-328.894 -233.788)"/><path class="g" d="M681.589,423.114H666.422a2.969,2.969,0,0,1,0-5.935h15.166a2.969,2.969,0,0,1,0,5.935Z" transform="translate(-325.797 -233.788)"/><path class="g" d="M0,0H255.82V134.584H0Z" transform="translate(32.326 65.803)"/><rect class="e" width="238.765" height="121.21" transform="translate(40.853 72.49)"/><path class="f" d="M422.733,357.484H248.678a.552.552,0,0,1-.545-.559V271.288a.545.545,0,1,1,1.089,0v85.078H422.733a.559.559,0,0,1,0,1.118Z" transform="translate(-172.727 -182.275)"/><path class="g" d="M297.7,381.113H281.871a1.641,1.641,0,0,1-1.617-1.66v-22.4a1.641,1.641,0,0,1,1.617-1.66H297.7a1.641,1.641,0,0,1,1.617,1.66v22.4a1.641,1.641,0,0,1-1.617,1.66Z" transform="translate(-184.563 -212.055)"/><path d="M343.418,369.583H327.587a1.641,1.641,0,0,1-1.617-1.66v-43.65a1.641,1.641,0,0,1,1.617-1.66h15.831a1.641,1.641,0,0,1,1.617,1.66v43.65a1.641,1.641,0,0,1-1.617,1.66Z" transform="translate(-201.409 -200.526)"/><path class="g" d="M389.134,381.113H373.3a1.641,1.641,0,0,1-1.617-1.66v-22.4a1.641,1.641,0,0,1,1.617-1.66h15.831a1.641,1.641,0,0,1,1.617,1.66v22.4a1.641,1.641,0,0,1-1.617,1.659Z" transform="translate(-218.255 -212.055)"/><path class="i" d="M434.85,365.032H419.018a1.6,1.6,0,0,1-1.617-1.585V311.26a1.6,1.6,0,0,1,1.617-1.585H434.85a1.6,1.6,0,0,1,1.617,1.585v52.188A1.6,1.6,0,0,1,434.85,365.032Z" transform="translate(-235.101 -195.077)"/><path class="i" d="M480.565,356.841H464.734a1.641,1.641,0,0,1-1.617-1.66V288.046a1.641,1.641,0,0,1,1.617-1.66h15.831a1.641,1.641,0,0,1,1.617,1.66v67.135A1.641,1.641,0,0,1,480.565,356.841Z" transform="translate(-251.947 -187.783)"/><ellipse cx="3.268" cy="3.355" rx="3.268" ry="3.355" transform="translate(101.956 129.917)"/><path d="M3.268,0A3.312,3.312,0,0,1,6.537,3.355,3.312,3.312,0,0,1,3.268,6.71,3.312,3.312,0,0,1,0,3.355,3.312,3.312,0,0,1,3.268,0Z" transform="translate(130.826 108.109)"/><ellipse cx="3.268" cy="3.355" rx="3.268" ry="3.355" transform="translate(159.695 129.917)"/><path d="M3.268,0A3.312,3.312,0,0,1,6.537,3.355,3.312,3.312,0,0,1,3.268,6.71,3.312,3.312,0,0,1,0,3.355,3.312,3.312,0,0,1,3.268,0Z" transform="translate(188.565 97.485)"/><ellipse cx="3.268" cy="3.355" rx="3.268" ry="3.355" transform="translate(217.435 85.184)"/><path class="g" d="M224.241,181.979,195.3,159.729l-28.544,21.946-.653-.895,29.2-22.449,28.8,22.144,28.621-32.15.114-.048,28.87-11.94.407,1.037L253.36,149.267Z" transform="translate(-61.209 -47.956)"/><path class="j" d="M929.507,765.016H688.9a.649.649,0,0,1,0-1.3H929.507a.649.649,0,0,1,0,1.3Z" transform="translate(-334.913 -355.682)"/></g></svg>